<svg width="86" height="487" xmlns="http://www.w3.org/2000/svg">
  <path d="M1.5 16.152l82 13.696M2 15.696L84 2M2 43l82 13.696M2 42.848l82-13.696M1.5 71.304L83.5 85M2 70.848l82-13.696m-82 41l82 13.696M2 98l82-13.696m-82.5 42L83.5 140M2 125.848l82-13.696m-82 41l82 13.696M2 153l82-13.696m-82.5 42L83.5 195M2 180.848l82-13.696M2 235.696L84 222M2 208.152l82 13.696M2 208l82-13.696m-82.5 71L83.5 279M2 264.848l82-13.696m-82 41l82 13.696M2 237l82 13.696M2 292l82-13.696M1.5 320.457l82 13.695M2 320l82-13.696m-82 41L84 361M2 347.152l82-13.695m-82.5 42l82 13.695M2 375l82-13.696m-82 41L84 416M2 402.152l82-13.695m-82.5 42l82 13.695M2 430l82-13.696M2 484.848l82-13.696M2 457.304L84 471M2 457.152l82-13.695" stroke="#263f44" stroke-width="10" fill="none" fill-rule="evenodd" stroke-linecap="round" stroke-linejoin="round" vector-effect="non-scaling-stroke"/>
  </svg>
