<svg width="430" height="419" viewBox="0 0 430 419" xmlns="http://www.w3.org/2000/svg"><g transform="translate(-56 -33)" fill="none" fill-rule="evenodd"><path d="M0 0h500v500H0z"/><path d="M230 296a8 8 0 018 8v34h-16.858v-19.2a6 6 0 00-6-6h-72.285a6 6 0 00-5.996 5.775l-.004.225V338H120v-34a8 8 0 018-8h102z" fill="#001858"/><path d="M141.464 42.763l76.143 7.434m-75.678-7.681l76.142-7.433M141.93 57.335l76.142 7.433m-76.142-7.516l76.142-7.433m-76.607 22.877l76.143 7.434m-75.678-7.681l76.142-7.433M141.93 87.268L218.07 94.7m-76.142-7.516l76.142-7.433m-76.607 22.795l76.143 7.433m-75.678-7.68l76.142-7.434m-76.142 22.252l76.142 7.433m-76.142-7.515l76.142-7.434m-76.607 22.795l76.143 7.433m-75.678-7.68l76.142-7.434m-76.142 37.201l76.142-7.433m-76.142-7.515l76.142 7.433m-76.142-7.516l76.142-7.433m-76.607 37.417l76.143 7.417m-75.678-7.664l76.142-7.417M141.93 191.41l76.142 7.417m-76.142-37.285l76.142 7.417m-76.142 22.368l76.142-7.417m-76.607 22.828l76.143 7.417m-75.678-7.664l76.142-7.417m-76.142 22.204l76.142 7.417m-76.142-7.5l76.142-7.417m-76.607 22.746l76.143 7.416m-75.678-7.664l76.142-7.417m-76.142 22.204l76.142 7.417m-76.142-7.5l76.142-7.416m-76.607 22.745l76.143 7.417m-75.678-7.664l76.142-7.417m-76.142 37.12l76.142-7.417m-76.142-7.5l76.142 7.418m-76.142-7.5l76.142-7.417" stroke="#001858" stroke-width="3" stroke-linecap="round" stroke-linejoin="round"/><path stroke="#001858" stroke-width="3" stroke-linecap="square" d="M57.5 35.5h251"/><path stroke="#001858" stroke-width="3" stroke-linecap="square" stroke-dasharray="2,10" d="M58 163h251"/><rect stroke="#001858" stroke-width="5" fill="#8BD3DD" x="60.5" y="340.5" width="246" height="109" rx="6"/><path d="M271.5 51.5v47h-10.256l22.256 26.184L305.756 98.5H295.5v-47h-24z" stroke="#001858" stroke-width="3"/><text fill="#172C66" font-family="RobotoMono-Regular, Roboto Mono" font-size="16"><tspan x="353" y="232">Tension</tspan></text><path d="M262.5 224a4.5 4.5 0 014.473 4H337v1h-70.028a4.5 4.5 0 11-4.472-5z" fill="#172C66" fill-rule="nonzero"/><text fill="#172C66" font-family="RobotoMono-Regular, Roboto Mono" font-size="16"><tspan x="353" y="401">Mass</tspan></text><path d="M262.5 393a4.5 4.5 0 014.473 4H337v1h-70.028a4.5 4.5 0 11-4.472-5z" fill="#172C66" fill-rule="nonzero"/><text fill="#172C66" font-family="RobotoMono-Regular, Roboto Mono" font-size="16"><tspan x="353" y="340">Bob</tspan></text><path d="M325.5 332a4.5 4.5 0 014.473 4H337v1h-7.028a4.5 4.5 0 11-4.472-5z" fill="#172C66" fill-rule="nonzero"/><text fill="#172C66" font-family="RobotoMono-Regular, Roboto Mono" font-size="16"><tspan x="353" y="95">Friction</tspan></text><path d="M283.5 84a4.5 4.5 0 014.473 4H337v1h-49.028a4.5 4.5 0 11-4.472-5z" fill="#172C66" fill-rule="nonzero"/><text fill="#172C66" font-family="RobotoMono-Regular, Roboto Mono" font-size="16"><tspan x="353" y="152">Rest position/</tspan> <tspan x="353" y="173">Equilibrium</tspan></text><path d="M286.5 158a4.5 4.5 0 014.473 4H337v1h-46.028a4.5 4.5 0 11-4.472-5z" fill="#172C66" fill-rule="nonzero"/><path stroke="#172C66" stroke-linecap="square" d="M250.5 168.5h25M250 296h25M263.5 168.5l-1 127M313 295.5h25M312.5 450.5h25M326 295.609l-1 154.782"/></g></svg>