<svg width="500" height="500" viewBox="0 0 500 500" xmlns="http://www.w3.org/2000/svg" xmlns:xlink="http://www.w3.org/1999/xlink"><defs><path d="M358.5 232v-10.1h3.5v-1.3h-8.4v1.3h3.5V232h1.4zm9.2.2a4.5 4.5 0 002-.5 3.6 3.6 0 001.3-1.2l-.9-.7a3 3 0 01-2.3 1.2 2.6 2.6 0 01-2.5-1.7l-.2-1.1h6v-.7c0-.5 0-1.1-.2-1.6-.1-.5-.4-1-.7-1.3-.3-.4-.6-.7-1-.9a3.8 3.8 0 00-4.3.8l-1 1.4-.2 1.8v.4c0 .6 0 1.1.3 1.6.2.5.4 1 .8 1.3.3.4.8.6 1.3.9.5.2 1 .3 1.6.3zm2-5.2h-4.6l.3-1 .6-.8a2.2 2.2 0 011.5-.6c.4 0 .7 0 1 .2l.6.5.4.8.2.8v.1zm5.3 5v-6c.2-.5.5-.8.9-1 .4-.3.8-.4 1.3-.4l.8.1.6.4.4.6v6.3h1.5v-5.4c0-.5 0-1-.2-1.4-.1-.4-.3-.8-.6-1-.2-.3-.5-.5-.9-.6l-1.2-.2a3.1 3.1 0 00-2.6 1.4l-.1-1.3h-1.3v8.5h1.4zm11.8.2l1.4-.2 1-.5.8-.8a2 2 0 000-2l-.6-.7-1-.5-1.5-.4-1-.2-.6-.3a1 1 0 01-.3-.3v-.5-.4l.4-.4c.1-.2.3-.3.5-.3a2.9 2.9 0 011.7 0l.6.3.4.5.1.5h1.4c0-.3 0-.7-.2-1l-.7-.8c-.3-.3-.6-.5-1-.6a4.5 4.5 0 00-3.8.5l-.7.8a2 2 0 000 1.9l.7.7 1 .5 1.3.3 1 .3c.3 0 .5.2.6.3l.4.4v.5c0 .3-.1.6-.5.8-.3.3-.8.4-1.4.4h-.7l-.7-.4c-.2 0-.4-.2-.5-.5-.2-.2-.3-.4-.3-.7h-1.4c0 .4 0 .7.2 1l.7 1 1.2.5c.4.2 1 .3 1.5.3zm9.7-10c.3 0 .5-.1.7-.3l.2-.6c0-.2 0-.4-.2-.6l-.7-.2c-.2 0-.5 0-.6.2l-.2.6c0 .3 0 .5.2.6.1.2.4.2.6.2zm3.6 9.8v-1.3h-2.8v-7.2H393v1.3h2.9v6h-3v1.2h7.2zm5.7.2c.6 0 1.1-.2 1.6-.4s.9-.5 1.2-.9c.4-.4.6-.8.8-1.3.2-.6.2-1.1.2-1.7v-.2c0-.6 0-1.2-.2-1.7a4 4 0 00-.8-1.4 3.5 3.5 0 00-2.8-1.2c-.6 0-1.1.1-1.6.3-.5.2-.9.5-1.2 1a4 4 0 00-.8 1.3c-.2.5-.2 1-.2 1.7v.2a4 4 0 001 3c.3.4.7.7 1.2 1 .5.1 1 .3 1.6.3zm0-1.2a2.1 2.1 0 01-1.8-1 3 3 0 01-.4-1l-.2-1.1v-.2c0-.4 0-.8.2-1.2 0-.4.2-.7.4-1l.8-.7a2 2 0 011-.2 2.1 2.1 0 011.8 1l.5 1 .1 1.1v.2l-.1 1.2a3 3 0 01-.5 1c-.2.2-.4.5-.7.6-.3.2-.7.3-1 .3zm7.6 1v-6c.2-.5.5-.8.9-1 .4-.3.8-.4 1.3-.4l.8.1.6.4c.2.1.3.4.4.6v6.3h1.5v-5.4c0-.5 0-1-.2-1.4-.1-.4-.3-.8-.6-1-.2-.3-.5-.5-.9-.6l-1.2-.2a3.1 3.1 0 00-2.6 1.4l-.1-1.3H412v8.5h1.4z" id="a"/><path d="M355.6 401v-4.5l-.2-4.6 2 6h.8l2.1-6.2-.1 4.8v4.5h1.4v-11.4h-1.8l-2 5.7-1.9-5.7h-1.7V401h1.4zm11.1.2a3.4 3.4 0 002.1-.7l.5-.4v.5l.2.4h1.5v-.1a5.5 5.5 0 01-.3-1.7v-4c0-.4 0-.9-.2-1.2-.2-.4-.4-.7-.7-.9a3 3 0 00-1.1-.5 4.9 4.9 0 00-2.8 0c-.4.2-.7.3-1 .6l-.7.8a2 2 0 00-.2.9h1.4c0-.2 0-.4.2-.5 0-.2.2-.3.3-.4l.6-.3.8-.1h.8l.6.4.4.5.2.7v.7h-1.6l-1.6.1c-.5.2-.9.3-1.2.6a2.4 2.4 0 00-1 2 2.4 2.4 0 001.6 2.4l1.3.2zm.3-1.3l-.8-.1c-.2 0-.4-.2-.5-.3-.2-.1-.3-.3-.3-.5l-.1-.5c0-.6.2-1 .7-1.2.4-.3 1-.4 2-.4h1.3v1.7l-.4.5-.5.4a3 3 0 01-1.4.4zm10.2 1.3l1.4-.2 1-.5.8-.8a2 2 0 000-2l-.6-.7-1-.5-1.5-.4-1-.2-.6-.3a1 1 0 01-.3-.3l-.1-.5.1-.4.4-.4c.1-.2.3-.3.5-.3a2.9 2.9 0 011.7 0l.6.3.4.5v.5h1.5c0-.3 0-.7-.2-1l-.7-.8c-.3-.3-.6-.5-1-.6a4.5 4.5 0 00-3.8.5l-.7.8a2 2 0 000 1.9l.7.7 1 .5 1.3.3 1 .3c.3 0 .5.2.6.3l.4.4v.5c0 .3-.1.6-.5.8-.3.3-.8.4-1.4.4h-.7l-.7-.4c-.2 0-.4-.2-.5-.5-.2-.2-.3-.4-.3-.7h-1.4c0 .4 0 .7.2 1l.7 1 1.2.5c.4.2 1 .3 1.5.3zm9.6 0l1.4-.2 1-.5.8-.8a2 2 0 000-2l-.6-.7-1-.5-1.5-.4-1-.2-.6-.3a1 1 0 01-.3-.3v-.5-.4l.4-.4c.1-.2.3-.3.5-.3a2.9 2.9 0 011.7 0l.6.3.4.5.1.5h1.4c0-.3 0-.7-.2-1l-.7-.8c-.3-.3-.6-.5-1-.6a4.5 4.5 0 00-3.8.5l-.7.8a2 2 0 000 1.9l.7.7 1 .5 1.3.3 1 .3c.3 0 .5.2.6.3l.4.4v.5c0 .3-.1.6-.5.8-.3.3-.8.4-1.4.4h-.7l-.7-.4c-.2 0-.4-.2-.5-.5-.2-.2-.3-.4-.3-.7h-1.4c0 .4 0 .7.2 1l.7 1 1.2.5c.4.2 1 .3 1.5.3z" id="b"/><path d="M358 340c.5 0 1 0 1.4-.2.5-.2.9-.4 1.2-.7.4-.2.6-.6.8-1 .2-.4.3-.9.3-1.4a2.9 2.9 0 00-.5-1.7l-.7-.6-.8-.4.7-.4.5-.5a2.3 2.3 0 00.5-1.4c0-.6 0-1-.3-1.4l-.8-1-1.2-.5-1.4-.2h-3.4V340h3.7zm-.2-6.5h-2v-3.6h2.8l.7.4.5.5.2.8c0 .3 0 .6-.2.8-.1.3-.3.4-.5.6-.2.1-.4.3-.7.3l-.8.2zm.2 5.3h-2.2v-4.1h2.3l.9.1.7.4a1.8 1.8 0 01.6 1.5 2 2 0 01-.7 1.5l-.7.4-.9.2zm9.4 1.4c.6 0 1.1-.2 1.6-.4s.9-.5 1.2-.9l.8-1.3c.2-.6.2-1.1.2-1.7v-.2c0-.6 0-1.2-.2-1.7a4 4 0 00-.8-1.4 3.5 3.5 0 00-2.8-1.2c-.6 0-1.1.1-1.6.3-.5.2-.9.5-1.2 1a4 4 0 00-.8 1.3c-.2.5-.2 1-.2 1.7v.2a4 4 0 001 3c.3.4.7.7 1.2 1 .5.1 1 .3 1.6.3zm0-1.2a2.1 2.1 0 01-1.8-1 3 3 0 01-.5-1l-.1-1.1v-.2l.1-1.2.5-1 .7-.7a2 2 0 011-.2 2.1 2.1 0 011.9 1c.2.2.3.5.4 1l.2 1.1v.2c0 .4 0 .8-.2 1.2a3 3 0 01-.4 1c-.2.2-.5.5-.8.6-.3.2-.6.3-1 .3zm10 1.2c.5 0 1-.2 1.4-.4a3 3 0 001-.9c.3-.4.6-.8.7-1.3.2-.6.2-1.1.2-1.7v-.2c0-.6 0-1.2-.2-1.7-.1-.6-.4-1-.6-1.4a3 3 0 00-2.5-1.2c-.5 0-1 0-1.4.3-.4.1-.7.4-1 .8V328h-1.4v12h1.3v-1a2.9 2.9 0 002.5 1.2zm-.4-1.3h-.6a2 2 0 01-.6-.3l-.5-.5-.3-.5V334a2.6 2.6 0 01.8-1l.5-.2h.7c.4 0 .8 0 1 .2.4.1.6.4.8.6l.4 1v2.5l-.4 1a2 2 0 01-.7.7 2 2 0 01-1 .2z" id="c"/><path d="M356 95v-5h4.7v-1.3H356V85h5.5v-1.3h-7V95h1.5zm10.6 0v-5.4c.2-.6.5-1 1-1.3.4-.3 1-.5 1.6-.5a7 7 0 011.6.2l.2-1.4h-.3a4 4 0 00-.8-.2h-.4c-.6 0-1.2.1-1.6.4-.5.3-1 .6-1.3 1v-1.3h-1.4V95h1.4zm10.7-9.9c.3 0 .5 0 .7-.2l.2-.6c0-.2 0-.4-.2-.6l-.7-.2c-.2 0-.5 0-.6.2-.2.2-.2.4-.2.6 0 .3 0 .5.2.6.1.2.4.2.6.2zM381 95v-1.3H378v-7.2h-4.3v1.3h2.9v6h-3V95h7.2zm5.9.2l1.3-.3c.4-.1.7-.3 1-.6.4-.2.6-.5.8-.9.2-.3.3-.7.3-1h-1.4l-.1.6-.5.5-.7.4h-.7c-.5 0-.9 0-1.2-.2l-.7-.7a3 3 0 01-.4-1 5 5 0 01-.1-1v-.4l.1-1c0-.4.2-.8.4-1l.7-.8 1.2-.2.8.1a2 2 0 011 1c.2.3.2.5.2.8h1.4a2.9 2.9 0 00-1-2.2l-1-.7-1.4-.2c-.7 0-1.2.1-1.7.3a4 4 0 00-2 2.3l-.2 1.6v.3c0 .6.1 1.1.3 1.6.1.6.4 1 .7 1.4.3.4.7.7 1.2 1 .5.1 1 .3 1.7.3zm10.6 0a7.4 7.4 0 001.9-.3l.4-.2-.2-1a13.6 13.6 0 01-1.7.2h-.6l-.5-.3-.4-.5-.1-.8v-4.6h3.2v-1.2h-3.2v-2h-1.5v2h-2.2v1.2h2.2v4.6l.2 1.3.6.9c.2.2.5.4.9.5l1 .2zm8.7-10c.3 0 .6-.1.7-.3l.2-.6c0-.2 0-.4-.2-.6l-.7-.2c-.2 0-.5 0-.6.2l-.2.6c0 .3 0 .5.2.6.1.2.4.2.6.2zm3.6 9.8v-1.3h-2.8v-7.2h-4.3v1.3h2.9v6h-3V95h7.2zm5.7.2c.6 0 1.1-.2 1.6-.4s.9-.5 1.2-.9c.4-.4.6-.8.8-1.3.2-.6.3-1.1.3-1.7v-.2c0-.6-.1-1.2-.3-1.7a4 4 0 00-.8-1.4 3.5 3.5 0 00-2.8-1.2c-.6 0-1.1.1-1.6.3-.5.2-.9.5-1.2 1a4 4 0 00-.8 1.3l-.2 1.7v.2a4 4 0 001 3c.3.4.7.7 1.2 1 .5.1 1 .3 1.6.3zm0-1.2a2.1 2.1 0 01-1.8-1 3 3 0 01-.4-1L413 91v-.2c0-.4 0-.8.2-1.2 0-.4.2-.7.4-1l.8-.7a2 2 0 011-.2 2.1 2.1 0 011.8 1c.2.2.4.5.5 1l.1 1.1v.2l-.1 1.2a3 3 0 01-.5 1c-.2.2-.4.5-.7.6-.3.2-.7.3-1 .3zm7.6 1v-6c.2-.5.5-.8.9-1 .4-.3.8-.4 1.3-.4l.8.1.6.4c.2.1.3.4.4.6V95h1.5v-5.4c0-.5 0-1-.2-1.4-.1-.4-.3-.8-.6-1-.2-.3-.5-.5-.9-.6l-1.2-.2a3.1 3.1 0 00-2.6 1.4l-.1-1.3h-1.3V95h1.4z" id="d"/><path d="M355.9 152v-4.6h2.2l2.3 4.6h1.5l-2.4-5c.3 0 .6-.3.8-.4a3.3 3.3 0 001.1-1.5c.2-.4.2-.7.2-1 0-.6 0-1.1-.3-1.6a3 3 0 00-.8-1 5.6 5.6 0 00-2.7-.9h-3.4V152h1.5zm1.9-5.8h-2v-4.4h2c.3 0 .6 0 1 .2l.7.4.5.7.2 1-.2.8a2 2 0 01-.5.7l-.8.4a3 3 0 01-1 .2zm9.9 6a4.5 4.5 0 002-.5 3.6 3.6 0 001.3-1.2l-.9-.7a3 3 0 01-2.3 1.2 2.6 2.6 0 01-2.5-1.7l-.2-1.1h6v-.7c0-.5 0-1.1-.2-1.6-.1-.5-.4-1-.7-1.3-.3-.4-.6-.7-1-.9a3.8 3.8 0 00-4.3.8l-1 1.4-.2 1.8v.4c0 .6 0 1.1.3 1.6.2.5.4 1 .8 1.3.3.4.8.6 1.3.9.5.2 1 .3 1.6.3zm2-5.2h-4.6l.3-1 .6-.8a2.2 2.2 0 011.5-.6c.4 0 .7 0 1 .2l.6.5.4.8.2.8v.1zm7.5 5.2l1.4-.2 1-.5.8-.8a2 2 0 000-2l-.6-.7-1-.5-1.5-.4-1-.2-.6-.3a1 1 0 01-.3-.3l-.1-.5.1-.4.4-.4c.1-.2.3-.3.5-.3a2.9 2.9 0 011.7 0l.6.3.4.5v.5h1.5c0-.3 0-.7-.2-1l-.7-.8c-.3-.3-.6-.5-1-.6a4.5 4.5 0 00-3.8.5l-.7.8a2 2 0 000 1.9l.7.7 1 .5 1.3.3 1 .3c.3 0 .5.2.6.3l.4.4v.5c0 .3-.1.6-.5.8-.3.3-.8.4-1.4.4h-.7l-.7-.4c-.2 0-.4-.2-.5-.5-.2-.2-.3-.4-.3-.7h-1.4c0 .4 0 .7.2 1l.7 1 1.2.5c.4.2 1 .3 1.5.3zm10.6 0a7.4 7.4 0 001.9-.3l.4-.2-.2-1a13.6 13.6 0 01-1.7.2h-.6l-.5-.3-.4-.5-.1-.8v-4.6h3.2v-1.2h-3.2v-2H385v2H383v1.2h2.2v4.6l.2 1.3.6.9c.2.2.5.4.9.5l1 .2zm16 3v-4l1 .7a3.5 3.5 0 002.8 0 3 3 0 001-1l.7-1.3.2-1.7v-.2c0-.6 0-1.2-.2-1.7l-.7-1.4a3 3 0 00-2.4-1.2c-.6 0-1 0-1.4.3-.4.2-.8.4-1 .8l-.1-1h-1.3v11.8h1.4zm2-4.2a2 2 0 01-2-1.2v-4c.2-.4.4-.6.8-.9a2 2 0 011.1-.3c.4 0 .8.1 1 .3.4.1.6.4.8.6l.4 1 .2 1.2v.2c0 .4 0 .8-.2 1.1 0 .4-.2.8-.4 1-.2.3-.4.6-.7.7a2 2 0 01-1 .3zm9.6 1.2c.6 0 1.1-.2 1.6-.4s.9-.5 1.2-.9c.4-.4.6-.8.8-1.3.2-.6.3-1.1.3-1.7v-.2c0-.6-.1-1.2-.3-1.7a4 4 0 00-.8-1.4 3.5 3.5 0 00-2.8-1.2c-.6 0-1.1.1-1.6.3-.5.2-.9.5-1.2 1a4 4 0 00-.8 1.3l-.2 1.7v.2a4 4 0 001 3c.3.4.7.7 1.2 1 .5.1 1 .3 1.6.3zm0-1.2a2.1 2.1 0 01-1.8-1 3 3 0 01-.4-1l-.2-1.1v-.2c0-.4 0-.8.2-1.2 0-.4.2-.7.4-1l.8-.7a2 2 0 011-.2 2.1 2.1 0 011.8 1c.2.2.4.5.5 1l.1 1.1v.2l-.1 1.2a3 3 0 01-.5 1c-.2.2-.4.5-.7.6-.3.2-.7.3-1 .3zm9.8 1.2l1.4-.2 1-.5.8-.8a2 2 0 000-2l-.6-.7-1-.5-1.5-.4-1-.2-.6-.3a1 1 0 01-.3-.3v-.5-.4l.4-.4c.1-.2.3-.3.6-.3a2.9 2.9 0 011.6 0l.6.3.4.5.1.5h1.4c0-.3 0-.7-.2-1l-.7-.8c-.3-.3-.6-.5-1-.6a4.5 4.5 0 00-3.8.5l-.7.8a2 2 0 000 1.9l.7.7 1 .5 1.3.3 1 .3c.3 0 .5.2.6.3l.4.4v.5c0 .3-.1.6-.5.8-.3.3-.8.4-1.4.4h-.7l-.7-.4c-.2 0-.4-.2-.5-.5-.2-.2-.3-.4-.3-.7h-1.4c0 .4 0 .7.2 1l.7 1 1.2.5c.4.2 1 .3 1.5.3zm9.8-10c.2 0 .5-.1.6-.3l.2-.6c0-.2 0-.4-.2-.6l-.6-.2c-.3 0-.6 0-.7.2l-.2.6c0 .3 0 .5.2.6.1.2.4.2.7.2zm3.5 9.8v-1.3h-2.8v-7.2h-4.3v1.3h2.9v6h-2.9v1.2h7zm7 .2a7.4 7.4 0 001.8-.3l.4-.2-.2-1a13.6 13.6 0 01-1.7.2h-.6l-.5-.3-.4-.5-.1-.8v-4.6h3.2v-1.2h-3.2v-2h-1.5v2h-2.2v1.2h2.2v4.6l.2 1.3.6.9c.3.2.5.4.9.5l1 .2zm8.7-10c.2 0 .5-.1.6-.3.2-.1.2-.3.2-.6 0-.2 0-.4-.2-.6l-.6-.2c-.3 0-.6 0-.7.2l-.2.6c0 .3 0 .5.2.6.1.2.4.2.7.2zm3.5 9.8v-1.3h-2.8v-7.2h-4.3v1.3h2.9v6h-2.9v1.2h7zm5.7.2c.6 0 1.1-.2 1.6-.4s.9-.5 1.2-.9c.4-.4.6-.8.8-1.3.2-.6.3-1.1.3-1.7v-.2c0-.6-.1-1.2-.3-1.7a4 4 0 00-.8-1.4 3.5 3.5 0 00-2.8-1.2c-.6 0-1.1.1-1.6.3-.5.2-.9.5-1.2 1a4 4 0 00-.8 1.3l-.2 1.7v.2a4 4 0 001 3c.3.4.7.7 1.2 1 .5.1 1 .3 1.6.3zm0-1.2a2.1 2.1 0 01-1.8-1 3 3 0 01-.4-1l-.2-1.1v-.2c0-.4 0-.8.2-1.2 0-.4.2-.7.4-1l.8-.7a2 2 0 011-.2 2.1 2.1 0 011.8 1c.2.2.4.5.5 1l.1 1.1v.2l-.1 1.2a3 3 0 01-.5 1c-.2.2-.4.5-.7.6-.3.2-.7.3-1 .3zm7.6 1v-6c.2-.5.5-.8.9-1 .4-.3.8-.4 1.3-.4l.8.1.6.4c.2.1.3.4.4.6v6.3h1.5v-5.4c0-.5 0-1-.2-1.4-.1-.4-.3-.8-.6-1-.2-.3-.5-.5-.9-.6l-1.2-.2a3.1 3.1 0 00-2.6 1.4l-.1-1.3h-1.3v8.5h1.4zm10 1l4.8-12.4h-1.3l-4.7 12.4h1.3zm-119.6 20v-1.2H356v-4h4.7v-1.3H356V163h5.4v-1.3h-6.9V173h7zm9.4 3.3v-11.8h-1.3v.9l-1-.8-1.4-.2c-.5 0-1 .1-1.4.3a3 3 0 00-1.1.9 4 4 0 00-.7 1.4l-.2 1.7v.2c0 .6 0 1.1.2 1.7.2.5.4 1 .7 1.3l1 1 1.5.3c.5 0 1-.1 1.3-.3.4-.1.7-.4 1-.7v4h1.4zm-3.4-4.3a2 2 0 01-1.7-1c-.2-.2-.3-.6-.4-1a5 5 0 01-.2-1.1v-.2c0-.4 0-.8.2-1.2 0-.4.2-.7.4-1l.7-.7a2 2 0 011-.2 2.2 2.2 0 011.2.3 2.2 2.2 0 01.8.8v4.2l-.8.8a2 2 0 01-1.2.3zm9.1 1.2c.6 0 1-.2 1.5-.4a3 3 0 001-1l.1 1.2h1.3v-8.5H379v6.1l-.8 1c-.4.2-.9.3-1.4.3h-.8l-.5-.5c-.2-.1-.3-.4-.3-.7a5 5 0 01-.1-1.1v-5h-1.5v5c0 .6 0 1.1.2 1.6l.6 1.1c.3.3.6.5 1 .6.3.2.7.3 1.1.3zm10.4-10c.3 0 .5-.1.7-.3l.2-.6c0-.2 0-.4-.2-.6l-.7-.2c-.2 0-.5 0-.6.2-.2.2-.2.4-.2.6 0 .3 0 .5.2.6.1.2.4.2.6.2zm3.6 9.8v-1.3h-2.8v-7.2h-4.3v1.3h2.9v6h-3v1.2h7.2zm9.6 0v-1.3h-2.8V161H393v1.3h2.9v9.4h-3v1.3h7.2zm6-9.9c.3 0 .6 0 .7-.2l.2-.6c0-.2 0-.4-.2-.6l-.7-.2c-.2 0-.5 0-.6.2l-.2.6c0 .3 0 .5.2.6.1.2.4.2.6.2zm3.6 9.9v-1.3h-2.8v-7.2h-4.3v1.3h2.9v6h-3v1.2h7.2zm6.1.2c.5 0 1-.2 1.4-.4a3 3 0 001-.9c.4-.4.6-.8.7-1.3.2-.6.2-1.1.2-1.7v-.2c0-.6 0-1.2-.2-1.7-.1-.6-.3-1-.6-1.4a3 3 0 00-2.5-1.2c-.5 0-1 0-1.4.3-.4.1-.7.4-1 .8V161H412v12h1.3v-1a2.9 2.9 0 002.5 1.2zm-.4-1.3h-.6a2 2 0 01-.6-.3l-.4-.5-.4-.5V167a2.6 2.6 0 01.8-1l.5-.2h.7c.4 0 .8 0 1 .2.4.1.6.4.8.6l.4 1v2.5l-.4 1a2 2 0 01-.7.7 2 2 0 01-1 .2zm8.8 1.1v-5.4c.2-.6.5-1 1-1.3.4-.3 1-.5 1.6-.5a7 7 0 011.6.2l.2-1.4h-.3a4 4 0 00-.8-.2h-.4c-.6 0-1.2.1-1.6.4-.5.3-1 .6-1.3 1v-1.3h-1.4v8.5h1.4zm10.8-9.9c.2 0 .5 0 .6-.2l.2-.6c0-.2 0-.4-.2-.6l-.6-.2c-.3 0-.6 0-.7.2l-.2.6c0 .3 0 .5.2.6.1.2.4.2.7.2zm3.5 9.9v-1.3h-2.8v-7.2h-4.3v1.3h2.9v6h-2.9v1.2h7zm5.2.2c.6 0 1-.2 1.5-.4a3 3 0 001-1l.1 1.2h1.4v-8.5h-1.5v6.1c-.2.4-.4.7-.8 1-.4.2-.8.3-1.4.3h-.8l-.5-.5c-.1-.1-.3-.4-.3-.7a5 5 0 01-.1-1.1v-5h-1.5v5c0 .6 0 1.1.2 1.6l.6 1.1c.3.3.6.5 1 .6.3.2.7.3 1.1.3zm7.4-.2v-6.7l.4-.5.7-.2c.3 0 .6.1.7.3.2.2.2.4.2.8v6.3h1.4v-6.5l.1-.3a.9.9 0 01.5-.5h.5c.6 0 1 .3 1 1v6.3h1.3v-6.3c0-.8-.2-1.4-.5-1.7-.3-.4-.8-.6-1.4-.6a2 2 0 00-1 .2 2 2 0 00-.7.7c-.2-.6-.8-1-1.5-1a2 2 0 00-1 .3c-.3.2-.6.4-.7.7v-.8h-1.4v8.5h1.4z" id="e"/></defs><g fill="none" fill-rule="evenodd"><path fill="#F3D2C1" d="M0 0h500v500H0z"/><path d="M230 296a8 8 0 018 8v34h-16.9v-19.2a6 6 0 00-6-6H143a6 6 0 00-6 5.8V338H120v-34a8 8 0 018-8h102z" fill="#001858"/><path d="M141.5 42.8l76.1 7.4M142 42.5l76.2-7.4m-76.2 22.2l76.2 7.5m-76.2-7.5l76.2-7.5m-76.6 22.9l76.1 7.4M142 72.4l76.2-7.4m-76.2 22.3l76.2 7.4m-76.2-7.5l76.2-7.4m-76.6 22.7l76.1 7.5m-75.7-7.7l76.2-7.4M141.9 117l76.2 7.5m-76.2-7.6l76.2-7.4m-76.6 22.8l76.1 7.4m-75.7-7.7l76.2-7.4M141.9 162l76.2-7.4m-76.2-7.5l76.2 7.4m-76.2-7.5l76.2-7.4m-76.6 37.4l76.1 7.4m-75.7-7.7l76.2-7.4m-76.2 22.2l76.2 7.4m-76.2-37.3l76.2 7.5m-76.2 22.3l76.2-7.4m-76.6 22.8l76.1 7.5m-75.7-7.7l76.2-7.4m-76.2 22.2l76.2 7.4m-76.2-7.5l76.2-7.4m-76.6 22.7l76.1 7.4m-75.7-7.6l76.2-7.4M141.9 251l76.2 7.4m-76.2-7.5l76.2-7.4m-76.6 22.7l76.1 7.4m-75.7-7.6l76.2-7.5m-76.2 37.2l76.2-7.5m-76.2-7.5l76.2 7.5m-76.2-7.5l76.2-7.5" stroke="#001858" stroke-width="3" stroke-linecap="round" stroke-linejoin="round"/><path stroke="#001858" stroke-width="3" stroke-linecap="square" d="M57.5 35.5h251"/><path stroke="#001858" stroke-width="3" stroke-linecap="square" stroke-dasharray="2,10" d="M58 163h251"/><rect stroke="#001858" stroke-width="5" fill="#8BD3DD" x="60.5" y="340.5" width="246" height="109" rx="6"/><path d="M271.5 51.5v47h-10.3l22.3 26.2 22.3-26.2h-10.3v-47h-24z" stroke="#001858" stroke-width="3" fill="#FEF6E4"/><g fill-rule="nonzero"><use fill="#FFF" xlink:href="#a"/><use fill="#172C66" xlink:href="#a"/></g><path d="M212.5 224c2.3 0 4.2 1.8 4.5 4h120v1H217a4.5 4.5 0 11-4.5-5z" fill="#172C66" fill-rule="nonzero"/><g fill-rule="nonzero"><use fill="#FFF" xlink:href="#b"/><use fill="#172C66" xlink:href="#b"/></g><path d="M262.5 393c2.3 0 4.2 1.8 4.5 4h70v1h-70a4.5 4.5 0 11-4.5-5z" fill="#172C66" fill-rule="nonzero"/><g fill-rule="nonzero"><use fill="#FFF" xlink:href="#c"/><use fill="#172C66" xlink:href="#c"/></g><path d="M325.5 332c2.3 0 4.2 1.8 4.5 4h7v1h-7a4.5 4.5 0 11-4.5-5z" fill="#172C66" fill-rule="nonzero"/><g fill-rule="nonzero"><use fill="#FFF" xlink:href="#d"/><use fill="#172C66" xlink:href="#d"/></g><path d="M283.5 84c2.3 0 4.2 1.8 4.5 4h49v1h-49a4.5 4.5 0 11-4.5-5z" fill="#172C66" fill-rule="nonzero"/><g fill-rule="nonzero"><use fill="#FFF" xlink:href="#e"/><use fill="#172C66" xlink:href="#e"/></g><path d="M286.5 158c2.3 0 4.2 1.8 4.5 4h46v1h-46a4.5 4.5 0 11-4.5-5z" fill="#172C66" fill-rule="nonzero"/><path stroke="#172C66" stroke-linecap="square" d="M313 295.5h25M312.5 450.5h25M326 295.6l-1 154.8"/></g></svg>
