<?xml version="1.0" standalone="no"?>
<!DOCTYPE svg PUBLIC "-//W3C//DTD SVG 20010904//EN"
 "http://www.w3.org/TR/2001/REC-SVG-20010904/DTD/svg10.dtd">
<svg version="1.0" xmlns="http://www.w3.org/2000/svg"
 width="520.000000pt" height="520.000000pt" viewBox="0 0 520.000000 520.000000"
 preserveAspectRatio="xMidYMid meet">
<metadata>
Created by potrace 1.11, written by Peter Selinger 2001-2013
</metadata>
<g transform="translate(0.000000,520.000000) scale(0.100000,-0.100000)"
fill="#000000" stroke="none">
<path d="M1700 5089 c-393 -60 -806 -122 -917 -138 -130 -20 -212 -36 -228
-47 -33 -21 -65 -83 -65 -125 0 -49 38 -106 84 -128 30 -14 444 -79 1486 -235
795 -119 1453 -220 1463 -224 20 -8 -2781 -433 -2851 -432 -96 0 -157 -62
-156 -158 2 -89 56 -143 151 -149 109 -7 2963 -438 2946 -445 -10 -4 -682
-107 -1493 -228 -811 -122 -1488 -226 -1505 -231 -66 -22 -125 -99 -125 -164
0 -44 37 -103 78 -124 27 -13 425 -77 1491 -237 1011 -152 1445 -221 1425
-226 -16 -5 -659 -96 -1429 -203 -770 -108 -1417 -200 -1437 -206 -70 -18
-118 -108 -97 -182 14 -51 54 -95 97 -106 20 -6 685 -107 1477 -226 792 -119
1447 -219 1455 -222 8 -3 -633 -103 -1425 -223 -792 -120 -1460 -221 -1484
-225 -77 -13 -151 -98 -151 -175 l0 -30 693 1 692 1 -133 21 c-73 11 -131 22
-129 23 2 2 676 105 1498 229 1586 239 1516 226 1563 289 29 39 29 133 0 172
-46 63 18 51 -1519 283 -797 120 -1443 221 -1435 224 8 3 647 94 1420 201 773
108 1423 201 1445 207 136 37 152 214 26 278 -27 14 -421 77 -1518 243 -815
122 -1480 224 -1478 226 1 2 672 104 1490 227 1096 165 1495 229 1518 242 55
33 72 67 72 143 0 54 -4 75 -21 96 -47 64 22 51 -1494 280 -782 117 -1430 214
-1438 214 -9 0 -13 2 -10 5 2 3 646 101 1431 220 848 127 1439 221 1456 230
73 37 102 149 55 212 -50 67 9 56 -1542 290 -793 119 -1438 220 -1434 224 4 3
615 97 1357 208 743 111 1355 204 1360 206 6 2 -442 3 -995 3 l-1005 0 -715
-109z"/>
</g>
</svg>
