<?xml version="1.0" standalone="no"?>
<!DOCTYPE svg PUBLIC "-//W3C//DTD SVG 20010904//EN"
 "http://www.w3.org/TR/2001/REC-SVG-20010904/DTD/svg10.dtd">
<svg version="1.0" xmlns="http://www.w3.org/2000/svg"
 width="700.000000pt" height="700.000000pt" viewBox="0 0 700.000000 700.000000"
 preserveAspectRatio="xMidYMid meet">
<metadata>
Created by potrace 1.11, written by Peter Selinger 2001-2013
</metadata>
<g transform="translate(0.000000,700.000000) scale(0.100000,-0.100000)"
fill="#000000" stroke="none">
<path d="M1019 6640 c-68 -20 -158 -79 -221 -143 -171 -173 -212 -424 -104
-642 45 -91 107 -161 194 -219 97 -64 185 -90 302 -90 103 0 118 2 230 33 157
43 346 93 363 96 10 2 32 9 50 14 18 6 75 22 127 36 52 14 196 53 320 86 124
33 281 76 350 94 69 18 170 45 225 60 55 15 107 29 115 31 20 5 239 64 440
118 443 120 587 158 605 162 11 2 43 10 70 19 50 15 411 112 600 161 55 15
120 32 145 39 25 8 158 43 295 80 138 37 255 68 260 70 22 7 -4342 3 -4366 -5z"/>
<path d="M5605 6258 c-130 -35 -122 -33 -160 -43 -16 -4 -70 -18 -120 -32 -49
-14 -97 -26 -105 -28 -8 -2 -73 -20 -145 -39 -71 -19 -200 -53 -285 -76 -85
-22 -198 -52 -250 -66 -52 -14 -117 -32 -145 -40 -27 -8 -187 -50 -355 -95
-168 -44 -327 -86 -355 -94 -27 -7 -347 -93 -710 -190 -363 -97 -734 -197
-825 -221 -91 -25 -173 -47 -183 -49 -10 -2 -102 -27 -205 -54 -103 -28 -304
-82 -447 -121 -330 -88 -309 -82 -381 -118 -139 -70 -246 -207 -288 -370 -19
-70 -14 -222 9 -287 37 -106 71 -161 145 -236 161 -162 352 -205 605 -135 300
83 1018 275 1048 281 10 2 32 9 50 15 26 8 423 116 462 124 6 2 30 8 55 15 25
8 50 14 55 15 6 2 30 8 55 15 25 7 128 34 230 62 102 27 201 54 220 59 19 6
145 40 280 76 370 99 773 207 985 264 105 28 291 79 415 112 124 33 331 89
460 124 129 36 246 67 259 70 13 2 46 16 75 31 199 100 318 300 310 522 -5
150 -56 264 -168 377 -157 157 -346 199 -591 132z"/>
<path d="M5787 4684 c-1 -1 -24 -4 -52 -8 -27 -3 -81 -15 -120 -25 -38 -10
-124 -33 -190 -51 -66 -17 -201 -53 -300 -80 -177 -48 -238 -65 -425 -114 -52
-14 -131 -35 -175 -46 -44 -12 -87 -24 -95 -26 -8 -2 -42 -11 -75 -20 -33 -9
-67 -18 -75 -19 -8 -2 -80 -22 -160 -43 -80 -22 -199 -54 -265 -72 -198 -52
-257 -68 -320 -85 -33 -9 -91 -25 -130 -35 -38 -10 -171 -46 -295 -79 -124
-34 -234 -63 -245 -65 -11 -3 -247 -66 -525 -141 -278 -75 -512 -138 -520
-140 -8 -2 -51 -13 -95 -25 -165 -44 -223 -60 -350 -93 -71 -19 -177 -47 -235
-62 -156 -40 -256 -90 -333 -167 -117 -116 -167 -227 -173 -385 -10 -262 171
-501 431 -568 77 -20 201 -17 285 6 57 15 278 74 320 84 29 8 274 73 560 150
248 67 543 146 560 150 47 12 700 187 725 195 17 5 41 11 55 14 14 3 57 14 95
25 39 10 131 35 205 55 74 20 185 49 245 66 61 16 119 32 130 34 11 3 70 18
130 35 205 56 1381 369 1450 387 198 50 281 91 374 183 213 212 223 551 22
773 -97 107 -217 169 -364 186 -37 5 -68 8 -70 6z"/>
<path d="M5719 3066 c-2 -2 -17 -6 -34 -9 -16 -3 -133 -33 -260 -67 -126 -34
-273 -73 -325 -87 -151 -39 -420 -111 -480 -128 -107 -30 -429 -116 -447 -120
-10 -2 -45 -11 -78 -20 -33 -9 -118 -32 -190 -51 -237 -64 -268 -72 -555 -149
-157 -42 -310 -83 -340 -91 -30 -8 -62 -17 -70 -19 -8 -2 -82 -21 -165 -43
-82 -22 -278 -75 -435 -116 -157 -42 -325 -87 -375 -101 -99 -27 -385 -103
-510 -136 -511 -135 -545 -149 -654 -257 -37 -37 -75 -80 -84 -97 -68 -131
-88 -206 -83 -320 5 -87 6 -97 30 -166 43 -125 161 -261 277 -317 160 -79 272
-80 539 -8 96 26 177 49 180 51 4 2 20 7 36 10 16 3 63 14 104 25 41 12 82 22
90 25 8 2 254 67 545 145 292 79 577 155 635 170 58 15 184 49 280 75 194 52
350 94 485 129 50 13 185 50 300 81 116 31 217 58 225 60 14 3 54 14 225 60
33 9 92 25 130 35 39 10 324 87 635 170 311 83 570 153 575 154 6 2 24 6 40
11 64 16 170 81 229 140 280 275 206 737 -145 907 -41 20 -98 41 -127 47 -51
11 -194 15 -203 7z"/>
<path d="M5710 1453 c-25 -5 -152 -38 -380 -99 -69 -19 -174 -47 -235 -63 -60
-16 -297 -79 -525 -141 -228 -61 -448 -120 -487 -131 -40 -10 -108 -29 -150
-40 -43 -12 -127 -34 -188 -51 -123 -32 -390 -105 -755 -203 -135 -37 -254
-68 -264 -71 -11 -2 -58 -15 -105 -28 -47 -14 -129 -36 -181 -50 -113 -29
-361 -96 -635 -170 l-200 -55 2190 2 2190 2 74 40 c184 98 302 289 305 495 1
102 -11 158 -56 250 -107 221 -362 354 -598 313z"/>
</g>
</svg>
