<?xml version="1.0" standalone="no"?>
<!DOCTYPE svg PUBLIC "-//W3C//DTD SVG 20010904//EN"
 "http://www.w3.org/TR/2001/REC-SVG-20010904/DTD/svg10.dtd">
<svg version="1.0" xmlns="http://www.w3.org/2000/svg"
 width="260.000000pt" height="260.000000pt" viewBox="0 0 260.000000 260.000000"
 preserveAspectRatio="xMidYMid meet">
<metadata>
Created by potrace 1.11, written by Peter Selinger 2001-2013
</metadata>
<g transform="translate(0.000000,260.000000) scale(0.100000,-0.100000)"
fill="#000000" stroke="none">
<path d="M473 2565 c-137 -22 -220 -39 -238 -51 -33 -21 -65 -83 -65 -125 0
-49 38 -106 84 -128 28 -13 193 -42 521 -91 264 -40 482 -74 484 -76 2 -2 2
-4 -1 -4 -4 0 -201 -29 -438 -65 -237 -36 -448 -65 -469 -65 -46 0 -118 -36
-145 -73 -28 -39 -28 -125 0 -164 32 -43 82 -73 123 -73 36 0 956 -136 976
-144 6 -3 3 -5 -5 -5 -72 -4 -1018 -155 -1040 -166 -129 -67 -111 -248 28
-284 20 -5 241 -40 489 -77 249 -37 451 -69 450 -70 -1 -2 -214 -33 -472 -69
-326 -46 -479 -71 -500 -83 -67 -39 -93 -150 -48 -211 45 -59 44 -59 554 -137
266 -40 491 -74 499 -74 35 -3 -30 -14 -493 -84 -425 -64 -492 -77 -522 -97
-37 -25 -75 -90 -75 -127 l0 -22 628 1 c359 1 606 5 579 9 -48 8 -75 20 -46
20 58 0 972 146 1006 160 55 24 83 69 83 135 0 66 -28 111 -83 135 -26 11
-219 44 -499 86 -251 37 -456 70 -454 71 2 2 210 33 462 68 253 36 471 70 485
76 83 33 116 142 66 217 -14 22 -41 45 -63 55 -22 9 -249 48 -529 90 -287 44
-480 77 -465 80 14 4 239 39 500 78 261 39 486 77 500 84 14 7 36 25 50 40 22
23 25 36 25 100 0 68 -2 76 -30 105 -16 18 -41 36 -54 41 -13 5 -230 41 -483
79 -415 62 -511 79 -452 80 67 1 925 140 952 154 52 27 74 70 69 138 -4 67
-28 100 -92 128 -24 10 -229 46 -502 86 -254 38 -459 72 -455 75 4 3 212 36
462 73 250 37 474 74 496 82 23 8 50 24 59 34 18 20 12 20 -841 19 l-859 -2
-212 -32z"/>
</g>
</svg>
